<mxfile host="Electron" agent="Mozilla/5.0 (Windows NT 10.0; Win64; x64) AppleWebKit/537.36 (KHTML, like Gecko) draw.io/24.7.5 Chrome/126.0.6478.183 Electron/31.3.0 Safari/537.36" version="24.7.5">
  <diagram name="Page-1" id="GkpDyFQIDc9C6z-ekyJK">
    <mxGraphModel dx="1100" dy="1182" grid="1" gridSize="10" guides="1" tooltips="1" connect="1" arrows="1" fold="1" page="1" pageScale="1" pageWidth="1100" pageHeight="850" math="0" shadow="0">
      <root>
        <mxCell id="0" />
        <mxCell id="1" parent="0" />
        <mxCell id="TyX8A4YXKyHElGHCQjlk-2" value="" style="rounded=0;whiteSpace=wrap;html=1;fillColor=none;" vertex="1" parent="1">
          <mxGeometry x="490" y="100" width="180" height="370" as="geometry" />
        </mxCell>
        <mxCell id="TyX8A4YXKyHElGHCQjlk-3" value="&lt;span style=&quot;color: rgb(230, 237, 243); font-family: -apple-system, BlinkMacSystemFont, &amp;quot;Segoe UI&amp;quot;, &amp;quot;Noto Sans&amp;quot;, Helvetica, Arial, sans-serif, &amp;quot;Apple Color Emoji&amp;quot;, &amp;quot;Segoe UI Emoji&amp;quot;; font-size: 16px; text-align: left; background-color: rgb(13, 17, 23);&quot;&gt;Track Storage Containers&lt;/span&gt;" style="ellipse;whiteSpace=wrap;html=1;" vertex="1" parent="1">
          <mxGeometry x="510" y="140" width="140" height="70" as="geometry" />
        </mxCell>
        <mxCell id="TyX8A4YXKyHElGHCQjlk-4" value="&lt;span style=&quot;color: rgb(230, 237, 243); font-family: -apple-system, BlinkMacSystemFont, &amp;quot;Segoe UI&amp;quot;, &amp;quot;Noto Sans&amp;quot;, Helvetica, Arial, sans-serif, &amp;quot;Apple Color Emoji&amp;quot;, &amp;quot;Segoe UI Emoji&amp;quot;; font-size: 16px; text-align: left; background-color: rgb(13, 17, 23);&quot;&gt;Track Categories&lt;/span&gt;" style="ellipse;whiteSpace=wrap;html=1;" vertex="1" parent="1">
          <mxGeometry x="510" y="250" width="140" height="70" as="geometry" />
        </mxCell>
        <mxCell id="TyX8A4YXKyHElGHCQjlk-5" value="&lt;span style=&quot;color: rgb(230, 237, 243); font-family: -apple-system, BlinkMacSystemFont, &amp;quot;Segoe UI&amp;quot;, &amp;quot;Noto Sans&amp;quot;, Helvetica, Arial, sans-serif, &amp;quot;Apple Color Emoji&amp;quot;, &amp;quot;Segoe UI Emoji&amp;quot;; font-size: 16px; text-align: left; background-color: rgb(13, 17, 23);&quot;&gt;Track Items&lt;/span&gt;" style="ellipse;whiteSpace=wrap;html=1;" vertex="1" parent="1">
          <mxGeometry x="510" y="360" width="140" height="70" as="geometry" />
        </mxCell>
        <mxCell id="TyX8A4YXKyHElGHCQjlk-6" value="User" style="shape=umlActor;verticalLabelPosition=bottom;verticalAlign=top;html=1;" vertex="1" parent="1">
          <mxGeometry x="360" y="240" width="30" height="60" as="geometry" />
        </mxCell>
        <mxCell id="TyX8A4YXKyHElGHCQjlk-9" value="" style="endArrow=none;html=1;rounded=0;entryX=0;entryY=0.5;entryDx=0;entryDy=0;exitX=1;exitY=0.3333333333333333;exitDx=0;exitDy=0;exitPerimeter=0;" edge="1" parent="1" source="TyX8A4YXKyHElGHCQjlk-6" target="TyX8A4YXKyHElGHCQjlk-3">
          <mxGeometry width="50" height="50" relative="1" as="geometry">
            <mxPoint x="520" y="630" as="sourcePoint" />
            <mxPoint x="570" y="580" as="targetPoint" />
          </mxGeometry>
        </mxCell>
        <mxCell id="TyX8A4YXKyHElGHCQjlk-10" value="" style="endArrow=none;html=1;rounded=0;entryX=0;entryY=0.5;entryDx=0;entryDy=0;" edge="1" parent="1" target="TyX8A4YXKyHElGHCQjlk-4">
          <mxGeometry width="50" height="50" relative="1" as="geometry">
            <mxPoint x="390" y="260" as="sourcePoint" />
            <mxPoint x="520" y="185" as="targetPoint" />
          </mxGeometry>
        </mxCell>
        <mxCell id="TyX8A4YXKyHElGHCQjlk-11" value="" style="endArrow=none;html=1;rounded=0;entryX=0;entryY=0.5;entryDx=0;entryDy=0;exitX=1;exitY=0.3333333333333333;exitDx=0;exitDy=0;exitPerimeter=0;" edge="1" parent="1" source="TyX8A4YXKyHElGHCQjlk-6" target="TyX8A4YXKyHElGHCQjlk-5">
          <mxGeometry width="50" height="50" relative="1" as="geometry">
            <mxPoint x="410" y="280" as="sourcePoint" />
            <mxPoint x="530" y="195" as="targetPoint" />
          </mxGeometry>
        </mxCell>
      </root>
    </mxGraphModel>
  </diagram>
</mxfile>
